<?xml version="1.0" standalone="no"?>
<!DOCTYPE svg PUBLIC "-//W3C//DTD SVG 20010904//EN"
 "http://www.w3.org/TR/2001/REC-SVG-20010904/DTD/svg10.dtd">
<svg version="1.0" xmlns="http://www.w3.org/2000/svg"
 width="100.000000pt" height="100.000000pt" viewBox="0 0 100.000000 100.000000"
 preserveAspectRatio="xMidYMid meet">
<metadata>
Created by potrace 1.13, written by Peter Selinger 2001-2015
</metadata>
<g transform="translate(0.000000,100.000000) scale(0.100000,-0.100000)"
fill="#000000" stroke="none">
<path d="M0 605 c0 -217 2 -395 3 -395 2 0 84 86 182 191 159 172 324 329 344
329 5 0 16 -8 25 -19 16 -18 15 -20 -14 -45 -17 -14 -39 -30 -48 -35 -9 -5
-15 -12 -12 -15 3 -2 74 40 158 96 165 107 203 146 54 54 -50 -31 -97 -56
-106 -56 -9 0 -19 12 -22 26 -7 29 -10 26 76 75 25 14 79 45 120 69 41 23 102
58 135 77 33 19 62 37 64 39 2 2 -212 4 -477 4 l-482 0 0 -395z"/>
<path d="M755 637 c-77 -40 -144 -84 -194 -127 -26 -22 -22 -50 7 -50 46 0
259 128 298 179 15 19 7 41 -15 40 -9 0 -52 -19 -96 -42z"/>
<path d="M817 423 c-93 -47 -166 -87 -163 -90 3 -3 28 4 55 16 27 11 54 21 59
21 5 0 14 -18 20 -40 9 -35 8 -42 -8 -50 -10 -5 -98 -25 -196 -45 -99 -20
-192 -40 -209 -45 -84 -27 -324 -99 -347 -104 -25 -6 -28 -11 -28 -46 l0 -40
500 0 500 0 0 206 0 206 -27 -17 c-16 -10 -50 -33 -78 -52 -69 -46 -85 -44
-85 10 l0 43 95 49 c52 28 95 53 95 58 0 12 -11 8 -183 -80z"/>
</g>
</svg>
